<svg style="fill: #212dab;" xmlns="http://www.w3.org/2000/svg" data-name="Layer 1" viewBox="0 0 122.88 114.39"><path d="M36.23 62.8a84.1 84.1 0 0 1 39.26 0 6.14 6.14 0 0 1 3.69 2.74L88.09 78l5.45-14.94a4.73 4.73 0 0 1 2.13-2.91l6.08-4.55a1.48 1.48 0 0 1 2.06.29 1.48 1.48 0 0 1-.29 2.06L100 60.58l1 .42 3.89-2.55a1.15 1.15 0 0 1 1.58.33 1.15 1.15 0 0 1-.33 1.58l-2 1.3h5.08a1.63 1.63 0 0 1 1.62 1.62 1.63 1.63 0 0 1-1.62 1.63h-4.4a13.52 13.52 0 0 1-.72 1.84L94.58 94a5.55 5.55 0 0 1-10 1l-8.5-13.08-4.19 23c-.93 5.12-4 9.48-8.88 9.48H48.73c-4.88 0-7.94-4.36-8.87-9.48l-4.4-24.17L26.23 95a5.55 5.55 0 0 1-7.6 2 5.48 5.48 0 0 1-2.42-3L6.74 66.75A13.52 13.52 0 0 1 6 64.91H1.63A1.63 1.63 0 0 1 0 63.28a1.63 1.63 0 0 1 1.63-1.62H6.7l-2-1.3a1.14 1.14 0 0 1-.33-1.58A1.14 1.14 0 0 1 6 58.45L9.85 61l1-.42-3.59-2.66A1.48 1.48 0 0 1 7 55.86a1.48 1.48 0 0 1 2-.29l6.09 4.55a4.73 4.73 0 0 1 2.13 2.91L22.68 78l8.91-12.45a5.9 5.9 0 0 1 4.55-2.72h.09Zm18.84-42.25a18.23 18.23 0 1 1-18.23 18.23 18.23 18.23 0 0 1 18.23-18.23Zm42.28 6.75v-.6a13.47 13.47 0 0 1 .32-3.26 4.74 4.74 0 0 1 1-2 7.3 7.3 0 0 1 1.55-1.34c.53-.35 1-.68 1.42-1a4.31 4.31 0 0 0 1-1 2.15 2.15 0 0 0 .37-1.24 2 2 0 0 0-.3-1.1 1.94 1.94 0 0 0-.8-.73 2.54 2.54 0 0 0-1.13-.26 2.48 2.48 0 0 0-1.24.31 2.4 2.4 0 0 0-.91.85 2.34 2.34 0 0 0-.34 1.27h-6.41a7.57 7.57 0 0 1 1.24-4.44 7.18 7.18 0 0 1 3.23-2.51 11.78 11.78 0 0 1 4.42-.8 13.48 13.48 0 0 1 4.75.78 7.21 7.21 0 0 1 3.29 2.33 6.2 6.2 0 0 1 1.2 3.89 6 6 0 0 1-1.94 4.64 10.94 10.94 0 0 1-2.07 1.59 7.82 7.82 0 0 0-1.51 1.07 3.78 3.78 0 0 0-.92 1.25 4.34 4.34 0 0 0-.31 1.7v.6ZM114.89 3H85.83a3.82 3.82 0 0 0-1.45.28 3.89 3.89 0 0 0-1.24.84A3.76 3.76 0 0 0 82 6.81v30.61a3.87 3.87 0 0 0 .29 1.45 3.91 3.91 0 0 0 .83 1.24 4 4 0 0 0 1.25.84 3.82 3.82 0 0 0 1.45.28h3a2.86 2.86 0 0 1 1.89 1 2.81 2.81 0 0 1 .71 1.9l.42 4.71 8.37-6.84a2.89 2.89 0 0 1 2-.81h13.88a3.82 3.82 0 0 0 1.45-.28 4 4 0 0 0 1.24-.84l.07-.06a4.08 4.08 0 0 0 .77-1.18 3.86 3.86 0 0 0 .28-1.45V6.81a3.82 3.82 0 0 0-.28-1.45 3.91 3.91 0 0 0-.83-1.24 4.17 4.17 0 0 0-1.25-.84 3.82 3.82 0 0 0-1.47-.28ZM85.83 0h30.24a6.89 6.89 0 0 1 2.6.52A7.09 7.09 0 0 1 120.88 2a7 7 0 0 1 1.48 2.21 6.89 6.89 0 0 1 .52 2.6v30.61a6.76 6.76 0 0 1-1.88 4.72l-.08.09a7.09 7.09 0 0 1-2.21 1.48 6.89 6.89 0 0 1-2.6.52h-13.86l-10.62 8.62a1.52 1.52 0 0 1-.9.4 1.5 1.5 0 0 1-1.62-1.36l-.67-7.66h-2.61a6.89 6.89 0 0 1-2.6-.52A6.85 6.85 0 0 1 79.54 40a6.7 6.7 0 0 1-.52-2.6V6.81a6.7 6.7 0 0 1 .52-2.6A6.82 6.82 0 0 1 85.83 0Zm14.55 35.65a3.39 3.39 0 0 1-2.47-1 3.31 3.31 0 0 1-1-2.47 3.23 3.23 0 0 1 1-2.42 3.45 3.45 0 0 1 4.88 0 3.29 3.29 0 0 1 1.07 2.42 3.37 3.37 0 0 1-.51 1.76 3.79 3.79 0 0 1-1.27 1.25 3.27 3.27 0 0 1-1.7.47Z" style="fill-rule:evenodd"/></svg>